<?xml version="1.0" standalone="no"?>
<!DOCTYPE svg PUBLIC "-//W3C//DTD SVG 20010904//EN"
 "http://www.w3.org/TR/2001/REC-SVG-20010904/DTD/svg10.dtd">
<svg version="1.0" xmlns="http://www.w3.org/2000/svg"
 width="1024.000000pt" height="1024.000000pt" viewBox="0 0 1024.000000 1024.000000"
 preserveAspectRatio="xMidYMid meet">
<metadata>
Created by potrace 1.16, written by Peter Selinger 2001-2019
</metadata>
<g transform="translate(0.000000,1024.000000) scale(0.100000,-0.100000)"
fill="#000000" stroke="none">
<path d="M0 5120 l0 -5120 5120 0 5120 0 0 5120 0 5120 -5120 0 -5120 0 0
-5120z m5120 2042 c0 -61 41 -216 74 -284 19 -40 76 -127 125 -193 105 -139
152 -226 159 -293 5 -53 -10 -118 -33 -147 -15 -19 -16 -18 -11 16 10 60 -7
53 -26 -10 -19 -61 -20 -63 -199 -253 -79 -83 -79 -232 -1 -385 12 -22 38 -54
59 -71 21 -17 32 -31 25 -32 -25 0 -130 105 -148 148 -9 23 -18 41 -19 40 -4
-4 24 -238 31 -260 3 -10 10 -16 15 -13 16 10 10 -27 -15 -100 -14 -38 -28
-83 -32 -100 -6 -28 -8 -24 -26 40 -27 101 -32 158 -19 212 17 65 41 301 41
396 0 43 5 88 11 100 7 12 43 54 80 94 92 98 119 152 119 242 0 38 -5 82 -10
97 -6 15 -9 28 -8 29 2 2 23 -4 46 -12 24 -8 46 -13 48 -10 8 8 -74 123 -139
197 -37 41 -89 108 -115 147 -26 40 -50 73 -54 73 -4 0 -17 -15 -29 -32 -13
-18 -45 -58 -73 -88 -116 -128 -183 -242 -208 -353 -8 -35 -13 -45 -16 -29 -2
12 -7 22 -12 22 -5 0 -11 -10 -14 -22 -2 -13 -4 3 -2 34 3 73 56 184 152 318
121 171 171 285 196 440 12 75 28 99 28 42z m-236 -794 c-47 -136 -26 -201 99
-304 95 -78 101 -92 95 -238 -7 -161 -24 -203 -112 -267 -54 -40 -81 -37 -32
3 24 20 51 58 72 102 55 114 44 202 -37 290 -112 123 -248 146 -406 69 -105
-51 -173 -145 -192 -263 -10 -61 4 -81 49 -76 30 3 30 3 30 -48 0 -42 7 -64
36 -111 80 -133 132 -177 366 -309 152 -86 217 -137 243 -192 l17 -36 15 29
c37 72 127 138 347 254 225 119 301 209 313 372 6 74 6 75 35 79 39 6 46 -11
36 -84 -10 -78 -34 -129 -94 -202 -60 -73 -121 -115 -311 -215 -173 -90 -249
-144 -298 -212 -19 -27 -41 -49 -49 -49 -7 0 -26 17 -41 38 -52 69 -90 104
-160 144 -328 189 -387 229 -456 306 -53 59 -85 135 -101 241 -10 67 -12 72
-19 43 -14 -66 -21 -45 -17 48 3 81 9 105 36 161 78 164 228 257 376 235 26
-4 70 -24 105 -46 34 -22 61 -37 61 -35 0 3 -13 23 -29 46 -30 40 -53 118 -46
154 2 11 4 29 4 41 1 24 41 76 41 53 0 -8 10 1 21 19 12 17 23 32 24 32 2 0
-7 -33 -21 -72z m811 -228 c98 -47 193 -172 208 -270 3 -19 3 -29 0 -22 -4 10
-10 10 -30 -3 -14 -9 -26 -15 -27 -13 -2 2 -17 23 -33 48 -60 87 -126 132
-223 150 -76 14 -145 -2 -218 -50 -97 -65 -142 -131 -143 -212 l0 -53 -15 40
c-17 46 -12 103 17 180 27 73 153 193 234 223 52 19 173 10 230 -18z m-2259
-1519 c81 -10 136 -39 159 -88 16 -33 21 -133 7 -133 -5 0 -16 -25 -26 -57
-13 -41 -31 -69 -65 -102 -42 -42 -45 -48 -31 -62 8 -9 47 -60 85 -114 121
-170 170 -216 251 -233 21 -4 40 -14 42 -21 4 -11 -7 -13 -55 -9 -67 7 -124
32 -174 79 -19 17 -45 39 -59 47 l-25 16 20 -24 c11 -13 34 -37 50 -52 20 -19
23 -26 10 -20 -11 6 -32 23 -46 39 -31 34 -65 88 -50 79 6 -4 11 -1 11 7 0 16
-34 50 -42 41 -3 -3 -9 0 -14 7 -4 8 -3 10 4 5 19 -12 14 2 -23 57 -70 106
-56 97 -150 97 l-85 0 1 -167 c0 -93 3 -162 6 -155 7 17 23 15 23 -3 0 -19 40
-35 86 -35 19 0 34 -4 34 -10 0 -11 -77 -12 -124 -1 -17 3 -29 11 -28 16 4 14
-38 19 -51 6 -8 -8 -7 -11 3 -12 20 -2 -68 -17 -103 -18 -44 -1 -28 23 19 29
38 5 39 6 46 55 3 28 7 195 7 373 l0 323 -27 10 c-15 6 -44 9 -64 7 -35 -3
-49 8 -31 25 9 10 323 8 409 -2z m3339 -136 c13 -33 39 -100 59 -149 20 -49
36 -98 36 -108 0 -10 4 -18 8 -18 14 0 64 -138 56 -151 -4 -7 -3 -9 3 -6 6 4
18 -14 28 -41 26 -70 73 -159 87 -168 7 -5 31 -11 53 -14 22 -3 39 -9 37 -15
-4 -16 -98 -9 -123 9 -29 20 -58 21 -65 1 -4 -8 -15 -15 -25 -15 -16 0 -18 3
-10 18 8 14 1 44 -25 118 -20 54 -36 106 -37 114 -1 12 -24 16 -128 18 -115 3
-128 2 -137 -15 -5 -10 -7 -24 -5 -30 3 -7 0 -13 -6 -13 -6 0 -8 -7 -5 -15 4
-8 1 -15 -6 -15 -6 0 -9 -4 -6 -8 3 -5 -4 -37 -15 -73 -19 -60 -19 -64 -3 -76
10 -7 26 -13 35 -13 10 0 21 -5 25 -12 5 -8 -2 -9 -26 -5 -18 4 -47 7 -64 7
-23 0 -27 3 -16 10 8 5 11 12 8 16 -4 4 -19 -1 -33 -10 -13 -9 -51 -19 -84
-22 -54 -6 -66 -3 -128 27 -37 18 -72 35 -77 37 -22 11 9 -22 38 -39 17 -10
26 -19 20 -19 -23 0 -79 47 -117 99 -22 30 -35 51 -28 47 30 -19 -17 63 -76
131 -26 30 -33 32 -115 38 l-88 7 0 -142 c0 -109 3 -141 13 -137 6 2 17 -3 23
-11 5 -8 31 -16 57 -19 56 -7 63 -23 10 -22 -44 1 -137 16 -110 18 9 0 17 6
17 11 0 17 -36 11 -60 -10 -24 -21 -110 -29 -110 -11 0 11 25 21 50 21 11 0
24 9 30 19 6 12 10 135 10 330 l0 310 -36 10 c-19 5 -42 7 -50 4 -9 -3 -14 1
-14 12 0 16 17 17 203 13 185 -3 206 -5 248 -26 61 -30 88 -77 71 -125 -7 -18
-12 -42 -12 -53 0 -11 -9 -38 -21 -59 -12 -22 -28 -52 -36 -68 -8 -15 -23 -32
-34 -38 -20 -10 -20 -10 1 -32 11 -12 57 -71 103 -132 69 -92 91 -114 136
-137 30 -16 69 -28 87 -28 59 0 69 20 236 465 49 131 92 243 95 248 11 18 26
-1 48 -58z m-2655 37 c0 -5 -21 -15 -47 -23 l-48 -14 0 -62 c2 -243 8 -415 14
-398 6 15 9 10 13 -22 8 -60 38 -115 73 -135 17 -9 56 -20 86 -24 76 -9 137
18 176 77 l28 42 5 256 c3 141 1 262 -4 269 -5 7 -26 15 -47 18 -72 12 -28 24
87 24 116 0 144 -9 77 -26 l-38 -9 -8 -225 c-8 -241 -17 -298 -62 -364 -14
-21 -21 -35 -15 -31 5 3 10 4 10 1 0 -3 -21 -20 -47 -38 -45 -30 -53 -32 -143
-33 -108 -2 -159 17 -217 77 -63 65 -67 87 -71 361 -3 178 -7 249 -15 253 -7
2 -28 6 -47 8 -19 3 -36 5 -38 5 -2 1 0 6 3 11 7 12 275 14 275 2z m1056 -3
c78 -14 176 -61 210 -102 36 -42 62 -102 69 -157 3 -30 2 -38 -3 -25 -7 14
-10 -4 -14 -62 -4 -72 -10 -94 -46 -167 -74 -149 -160 -199 -342 -200 -93 0
-109 3 -143 23 -36 22 -40 23 -55 7 -15 -15 -13 -16 23 -16 64 0 35 -7 -58
-14 -69 -5 -88 -3 -85 6 3 7 20 15 39 18 l34 5 5 323 c3 198 1 327 -4 333 -6
5 -29 9 -53 9 -32 0 -43 4 -43 15 0 13 29 15 203 15 112 0 230 -5 263 -11z
m-739 -1127 c-12 -13 -17 -37 -17 -75 l0 -57 85 0 85 0 0 60 c0 45 -4 62 -15
66 -28 11 -15 19 35 21 48 1 66 -9 35 -21 -12 -4 -15 -30 -15 -145 0 -133 1
-141 22 -155 22 -15 20 -16 -32 -16 -42 0 -51 3 -42 12 7 7 12 42 12 85 l0 73
-85 0 -85 0 0 -71 c0 -57 4 -75 18 -85 15 -12 10 -13 -37 -14 -52 0 -53 1 -38
18 14 15 17 42 17 156 0 129 -1 138 -20 143 -39 10 -19 23 37 23 54 0 55 -1
40 -18z m534 -47 c126 -66 70 -269 -78 -282 -94 -8 -163 56 -163 151 0 66 27
111 83 137 47 22 107 20 158 -6z m369 -7 c0 -32 -5 -34 -26 -13 -9 8 -31 15
-50 15 l-34 0 0 -125 c0 -108 2 -125 18 -134 13 -8 4 -10 -38 -10 -42 0 -51 2
-37 10 15 9 17 27 17 136 l0 126 -46 -7 c-26 -3 -53 -11 -60 -17 -17 -14 -19
3 -5 29 8 15 27 17 135 17 l126 0 0 -27z m402 11 c-22 -8 -23 -12 -20 -131 l3
-123 45 -3 c33 -3 47 1 57 14 16 21 27 13 19 -14 -9 -26 -26 -30 -120 -23 -69
5 -77 8 -63 20 14 11 17 34 17 132 0 109 -1 118 -20 124 -37 12 -13 20 47 16
46 -3 53 -5 35 -12z m-172 -15 c0 -24 -1 -24 -22 -10 -12 9 -35 16 -50 16 -27
0 -28 -1 -28 -56 l0 -56 45 4 c41 3 45 1 45 -20 0 -19 -3 -21 -19 -12 -11 5
-31 10 -46 10 -25 0 -26 -1 -23 -57 l3 -58 34 -3 c27 -3 39 2 53 20 l19 23 -3
-30 -3 -30 -88 -3 -88 -3 16 24 c12 19 15 47 13 133 -3 104 -4 109 -28 121
-22 11 -13 13 73 13 l97 0 0 -26z"/>
<path d="M3275 4581 l-40 -6 -3 -174 c-2 -150 0 -173 12 -168 9 4 18 2 21 -3
4 -6 41 -10 84 -10 64 0 83 4 105 21 42 33 56 71 56 152 0 66 -3 79 -31 121
-17 25 -39 50 -48 55 -24 13 -110 20 -156 12z"/>
<path d="M5843 4484 c-23 -5 -23 -8 -23 -154 0 -97 4 -151 11 -156 6 -3 48 -9
94 -11 l82 -6 39 35 c35 33 38 40 42 100 3 44 -1 76 -12 103 -12 29 -14 40 -5
46 36 22 -157 58 -228 43z"/>
<path d="M6714 4378 c-5 -7 -29 -69 -55 -138 l-47 -125 105 -3 c58 -1 107 -1
109 1 2 1 -17 57 -41 122 -25 66 -45 125 -45 132 0 18 -18 25 -26 11z"/>
<path d="M4899 4483 c-3 -56 1 -617 5 -621 3 -3 6 1 6 9 0 12 2 12 10 -1 12
-20 194 -27 256 -10 24 7 64 30 88 51 61 54 88 121 93 234 6 115 -18 186 -84
253 -25 24 -39 41 -31 37 9 -6 10 -5 3 3 -21 22 -168 52 -257 52 -48 0 -88 -3
-89 -7z"/>
<path d="M4833 3335 c-57 -24 -80 -106 -49 -178 29 -69 95 -94 154 -57 86 53
75 197 -18 234 -48 19 -46 19 -87 1z"/>
</g>
</svg>
